<svg width="25" height="31" viewBox="0 0 25 31" fill="none" xmlns="http://www.w3.org/2000/svg">
<path d="M18.9678 30.0763H6.03239L0.674805 14.631H24.3254L18.9678 30.0763Z" fill="#2D9EAA"/>
<path d="M0.916138 14.631H24.3254L18.9678 30.0763" fill="#18899B"/>
<path d="M16.9407 30.0763H8.05969L4.4397 14.631H20.5607L16.9407 30.0763Z" fill="#99CCCE"/>
<path d="M4.77747 14.631H20.5606L16.9406 30.0763" fill="#88BCBC"/>
<path d="M14.2377 30.0763H10.7625L9.36279 14.631H15.6375L14.2377 30.0763Z" fill="#18899B"/>
<path d="M13.9481 30.0763H10.7625L9.36279 14.631" fill="#2D9EAA"/>
<path d="M24.3254 14.631H0.674805L2.31586 11.2041L22.7326 11.2524L24.3254 14.631Z" fill="#0A6077"/>
<path d="M21.6708 14.631H3.32957L2.2677 11.2524H22.7327L21.6708 14.631Z" fill="#02445B"/>
<path d="M15.8788 25.7323H9.12146L8.05957 18.975H16.9406L15.8788 25.7323Z" fill="#EFD27F"/>
<path d="M8.15613 18.975H16.9406L15.9753 25.4427" fill="#E2B544"/>
<circle cx="9.71802" cy="20.3438" r="0.5" fill="#0A6077"/>
<circle cx="11.166" cy="20.3438" r="0.5" fill="#0A6077"/>
<circle cx="12.614" cy="20.3438" r="0.5" fill="#0A6077"/>
<circle cx="14.062" cy="20.3438" r="0.5" fill="#0A6077"/>
<circle cx="15.51" cy="20.3438" r="0.5" fill="#0A6077"/>
<path d="M10.2798 24.8153C10.2798 25.0083 10.135 25.1531 9.94199 25.1531C9.74893 25.1531 9.60413 25.0083 9.60413 24.8153C9.60413 24.6222 9.7489 24.4774 9.94199 24.4774C10.135 24.4774 10.2798 24.6222 10.2798 24.8153Z" fill="#0A6077"/>
<circle cx="11.4073" cy="24.9774" r="0.5" fill="#0A6077"/>
<circle cx="12.6622" cy="24.9774" r="0.5" fill="#0A6077"/>
<circle cx="13.9172" cy="24.9774" r="0.5" fill="#0A6077"/>
<circle cx="15.2205" cy="24.9774" r="0.5" fill="#0A6077"/>
<path d="M8.49408 10.818C8.20448 10.2388 7.57701 9.94921 6.94953 10.1423C6.32208 10.3353 5.93595 10.9145 6.03248 11.5903C5.40501 11.8316 5.01889 12.5073 5.21194 13.183C5.40501 13.8588 6.12901 14.2932 6.85301 14.0519C7.38394 13.9071 7.72181 13.4727 7.77008 12.9417C8.10794 13.3279 8.63887 13.5209 9.1698 13.3761C9.84553 13.183 10.2799 12.4591 10.0386 11.7351C9.84553 11.0111 9.1698 10.6249 8.49408 10.818Z" fill="#EFD27F"/>
<path d="M6.85291 14.0036C7.38383 13.8587 7.72169 13.4244 7.76996 12.8934C8.10783 13.2796 8.63876 13.4726 9.16971 13.3278C9.84543 13.1348 10.2798 12.4108 10.0385 11.6868C9.84543 11.011 9.16971 10.6249 8.49396 10.7697" fill="#E2B544"/>
<path d="M7.76999 12.8934C8.10786 13.2796 8.63879 13.4726 9.16972 13.3278C9.84546 13.1348 10.2798 12.4108 10.0385 11.6868C9.84546 11.0111 9.16972 10.6249 8.49399 10.7697C8.20439 10.1905 7.57692 9.90093 6.94946 10.094" fill="#E2B544"/>
<path d="M6.17726 11.8798C6.27381 11.9764 6.22554 12.1694 6.08074 12.4108C5.93595 12.6038 5.69461 12.7486 5.59807 12.6521C5.50154 12.5556 5.54981 12.3625 5.69461 12.1212C5.8394 11.8798 6.08074 11.7833 6.17726 11.8798Z" fill="#FFF0B0"/>
<path d="M6.85295 10.3836C6.94948 10.4319 6.90122 10.6249 6.75641 10.818C6.61162 11.011 6.41855 11.1076 6.37029 11.011C6.27376 10.9628 6.32202 10.7697 6.46683 10.5767C6.61162 10.4319 6.75643 10.3353 6.85295 10.3836Z" fill="#FFF0B0"/>
<path d="M20.0296 1.45427C20.0779 0.826803 19.6918 0.199339 19.0643 0.054539C18.4368 -0.138527 17.8094 0.199339 17.5198 0.778537C16.844 0.633737 16.1683 1.06814 15.9753 1.6956C15.7822 2.4196 16.2166 3.09533 16.8923 3.28839C17.4232 3.43319 17.9541 3.24013 18.2438 2.854C18.3403 3.33666 18.6781 3.77106 19.2091 3.91586C19.9331 4.10892 20.6571 3.67453 20.8019 2.9988C21.0915 2.37133 20.7054 1.6956 20.0296 1.45427Z" fill="#EFD27F"/>
<path d="M16.9407 3.33668C17.4716 3.48148 18.0025 3.28841 18.2921 2.90228C18.3887 3.38494 18.7265 3.81934 19.2574 3.96414C19.9815 4.15721 20.7054 3.72281 20.8503 3.04708C21.0433 2.37135 20.6572 1.69562 20.0297 1.45428" fill="#E2B544"/>
<path d="M18.3403 2.90229C18.4369 3.38495 18.7747 3.81935 19.3057 3.96415C20.0297 4.15722 20.7537 3.72282 20.8985 3.04709C21.0915 2.37136 20.7054 1.69563 20.0779 1.45429C20.1262 0.82683 19.7401 0.199365 19.1126 0.0545654" fill="#E2B544"/>
<path d="M17.5198 1.11641C17.5681 1.21294 17.375 1.40601 17.1337 1.50254C16.8924 1.59907 16.651 1.59907 16.6028 1.45427C16.5545 1.35774 16.7476 1.16468 16.9889 1.06814C17.2302 1.01988 17.4716 1.01988 17.5198 1.11641Z" fill="#FFF0B0"/>
<path d="M18.8713 0.247603C18.9196 0.344137 18.7748 0.488936 18.5334 0.585469C18.3403 0.682002 18.099 0.633736 18.0508 0.537203C18.0025 0.44067 18.1473 0.29587 18.3886 0.199337C18.6299 0.151071 18.823 0.151071 18.8713 0.247603Z" fill="#FFF0B0"/>
<path d="M11.7762 1.21294C11.5349 0.826807 11.0522 0.682008 10.6178 0.826807C10.1834 1.01987 9.99034 1.45427 10.0869 1.88867C9.65248 2.08174 9.45941 2.61267 9.65248 3.09533C9.84553 3.578 10.3765 3.77106 10.8591 3.578C11.197 3.4332 11.4383 3.09533 11.4383 2.7092C11.6797 2.95053 12.1141 3.04707 12.4519 2.90227C12.9346 2.7092 13.1277 2.17827 12.9346 1.6956C12.7415 1.26121 12.2106 1.06814 11.7762 1.21294Z" fill="#EFD27F"/>
<path d="M10.8591 3.57798C11.197 3.43318 11.4383 3.09531 11.4383 2.70918C11.6796 2.95052 12.1141 3.04705 12.4519 2.90225C12.9346 2.70918 13.1277 2.17825 12.9346 1.69559C12.7415 1.26119 12.2589 1.01986 11.7762 1.16465" fill="#E2B544"/>
<path d="M11.3901 2.75747C11.6314 2.9988 12.0658 3.09533 12.4037 2.95053C12.8863 2.75747 13.0794 2.22654 12.8863 1.74387C12.6933 1.30947 12.2106 1.06814 11.7279 1.21294C11.5349 0.826807 11.0522 0.682008 10.6178 0.826807" fill="#E2B544"/>
<circle cx="10.9828" cy="2.76063" r="0.5" transform="rotate(-149.116 10.9828 2.76063)" fill="#FFF0B0"/>
<path d="M10.5695 1.06816C10.6178 1.11642 10.6178 1.26122 10.5212 1.40602C10.4247 1.55082 10.3282 1.64736 10.2317 1.59909C10.1834 1.55082 10.1834 1.40602 10.2799 1.26122C10.3765 1.11642 10.5212 1.01989 10.5695 1.06816Z" fill="#FFF0B0"/>
<path d="M22.2983 9.22516C22.2501 8.83902 21.9604 8.50116 21.5261 8.50116C21.1399 8.50116 20.7538 8.74249 20.7055 9.12863C20.2711 9.12863 19.9332 9.46648 19.8849 9.90089C19.8367 10.3353 20.2228 10.7214 20.6572 10.7697C20.9951 10.7697 21.2847 10.6249 21.4295 10.3353C21.5261 10.6249 21.8157 10.8662 22.1535 10.8662C22.5879 10.9145 22.9741 10.5284 23.0223 10.0939C23.0223 9.65956 22.7327 9.27342 22.2983 9.22516Z" fill="#EFD27F"/>
<path d="M20.6572 10.7214C20.9951 10.7214 21.2847 10.5766 21.4295 10.287C21.526 10.5766 21.8156 10.818 22.1535 10.818C22.5879 10.8662 22.974 10.4801 23.0223 10.0457C23.0706 9.61131 22.7327 9.27344 22.2983 9.17691" fill="#E2B544"/>
<path d="M21.4294 10.287C21.526 10.5766 21.8156 10.818 22.1534 10.818C22.5878 10.8662 22.974 10.4801 23.0222 10.0457C23.0705 9.6113 22.7326 9.27344 22.2982 9.17691C22.25 8.79077 21.9604 8.45291 21.526 8.45291" fill="#E2B544"/>
<path d="M20.7055 9.36996C20.7537 9.41824 20.6572 9.56302 20.5124 9.65956C20.3676 9.7561 20.2228 9.7561 20.1745 9.70782C20.1263 9.65956 20.2228 9.51477 20.3676 9.41824C20.5124 9.32171 20.6572 9.27344 20.7055 9.36996Z" fill="#FFF0B0"/>
<path d="M21.4295 8.64596C21.4778 8.69424 21.3813 8.79076 21.2847 8.88729C21.1882 8.98383 21.0434 8.98383 20.9951 8.93557C20.9469 8.88729 21.0434 8.79076 21.1399 8.69424C21.2847 8.5977 21.3813 8.5977 21.4295 8.64596Z" fill="#FFF0B0"/>
<path d="M13.5619 12.2177C13.5137 11.8316 13.2241 11.4937 12.7897 11.4937C12.4036 11.4937 12.0174 11.735 11.9692 12.1212C11.5348 12.1212 11.1969 12.459 11.1486 12.8934C11.1004 13.3278 11.4865 13.714 11.9209 13.7622C12.2588 13.7622 12.5484 13.6174 12.6932 13.3278C12.7897 13.6174 13.0793 13.8588 13.4171 13.8588C13.8516 13.907 14.2377 13.5209 14.2859 13.0865C14.2859 12.6521 13.9964 12.266 13.5619 12.2177Z" fill="#EFD27F"/>
<path d="M11.9209 13.7139C12.2588 13.7139 12.5484 13.5692 12.6931 13.2796C12.7897 13.5692 13.0793 13.8105 13.4171 13.8105C13.8515 13.8587 14.2377 13.4726 14.2859 13.0382C14.3342 12.6038 13.9963 12.266 13.562 12.1694" fill="#E2B544"/>
<path d="M12.6931 13.2796C12.7896 13.5692 13.0793 13.8105 13.4171 13.8105C13.8515 13.8587 14.2376 13.4726 14.2859 13.0382C14.3342 12.6038 13.9963 12.266 13.5619 12.1694C13.5136 11.7833 13.2241 11.4454 12.7896 11.4454" fill="#E2B544"/>
<circle cx="12.9041" cy="12.4572" r="0.5" transform="rotate(-123.162 12.9041 12.4572)" fill="#FFF0B0"/>
<path d="M12.6932 11.6385C12.7415 11.6868 12.645 11.7833 12.5484 11.8799C12.4519 11.9764 12.3071 11.9764 12.2588 11.9281C12.2105 11.8799 12.3071 11.7833 12.4036 11.6868C12.5484 11.5902 12.6932 11.5902 12.6932 11.6385Z" fill="#FFF0B0"/>
<path d="M20.6089 6.13611C20.5607 5.74997 20.2711 5.41211 19.8367 5.41211C19.4506 5.41211 19.0645 5.65343 19.0162 6.03957C18.5818 6.03957 18.2439 6.37743 18.1956 6.81184C18.1474 7.24623 18.5335 7.63236 18.9679 7.68063C19.3058 7.68063 19.5953 7.53584 19.7402 7.24624C19.8367 7.53584 20.1263 7.77716 20.4642 7.77716C20.8986 7.82543 21.2847 7.4393 21.333 7.0049C21.3812 6.5705 21.0434 6.18437 20.6089 6.13611Z" fill="#EFD27F"/>
<path d="M19.0161 7.63239C19.354 7.63239 19.6436 7.48759 19.7884 7.19799C19.8849 7.48759 20.1745 7.72892 20.5124 7.72892C20.9468 7.77719 21.3329 7.39106 21.3812 6.95666C21.4294 6.52226 21.0916 6.18439 20.6572 6.08786" fill="#E2B544"/>
<path d="M19.7883 7.19798C19.8848 7.48758 20.1744 7.72891 20.5123 7.72891C20.9467 7.77719 21.3328 7.39105 21.3811 6.95667C21.4294 6.52225 21.0915 6.18439 20.6571 6.08786C20.6089 5.70172 20.3193 5.36386 19.8848 5.36386" fill="#E2B544"/>
<path d="M19.0644 6.28089C19.1126 6.32915 19.0161 6.47396 18.8713 6.57048C18.7265 6.66701 18.5817 6.66701 18.5334 6.61875C18.4852 6.57048 18.5817 6.42569 18.7265 6.32915C18.8713 6.23262 19.0161 6.18436 19.0644 6.28089Z" fill="#FFF0B0"/>
<path d="M19.7401 5.55691C19.7884 5.60518 19.6918 5.70171 19.5953 5.79824C19.4987 5.89478 19.354 5.89478 19.3057 5.84651C19.2574 5.79824 19.354 5.70171 19.4505 5.60518C19.5953 5.50865 19.7401 5.50865 19.7401 5.55691Z" fill="#FFF0B0"/>
<path d="M11.2452 5.21906C11.197 4.97772 11.0039 4.73639 10.7625 4.73639C10.473 4.73639 10.2799 4.88119 10.2316 5.17078C9.94202 5.17078 9.70068 5.41212 9.70068 5.65346C9.70068 5.94305 9.89374 6.18438 10.1833 6.23265C10.4247 6.23265 10.6178 6.13612 10.7143 5.94305C10.7625 6.13612 10.9556 6.28091 11.197 6.28091C11.4865 6.28091 11.7279 6.08785 11.7762 5.79826C11.7279 5.50865 11.4865 5.26732 11.2452 5.21906Z" fill="#EFD27F"/>
<path d="M10.1351 6.23264C10.3765 6.23264 10.5695 6.13611 10.666 5.94305C10.7143 6.13611 10.9074 6.28091 11.1487 6.28091C11.4383 6.28091 11.6797 6.08784 11.7279 5.79825C11.7279 5.50865 11.5349 5.26732 11.2453 5.21906" fill="#E2B544"/>
<path d="M10.666 5.94305C10.7143 6.13612 10.9073 6.28091 11.1487 6.28091C11.4383 6.28091 11.6796 6.08785 11.7279 5.79826C11.7279 5.50865 11.5348 5.26732 11.2452 5.21906C11.1969 4.97772 11.0039 4.73639 10.7625 4.73639" fill="#E2B544"/>
<path d="M10.1834 5.31558C10.2317 5.36385 10.1352 5.46038 10.0869 5.50865C9.99035 5.55691 9.89382 5.60518 9.89382 5.55691C9.84554 5.50865 9.89382 5.41211 9.99035 5.36385C10.0386 5.26731 10.1352 5.26731 10.1834 5.31558Z" fill="#FFF0B0"/>
<path d="M10.6661 4.83292C10.7143 4.88119 10.6661 4.92946 10.5695 4.97772C10.473 5.02599 10.4247 5.02599 10.3765 5.02599C10.3765 4.97772 10.3765 4.92946 10.473 4.88119C10.5695 4.83292 10.6178 4.78465 10.6661 4.83292Z" fill="#FFF0B0"/>
<path d="M17.4233 8.35638C17.375 8.11505 17.1819 7.87372 16.9406 7.87372C16.6993 7.87372 16.458 8.01851 16.4097 8.30812C16.1201 8.30812 15.8788 8.54944 15.8788 8.79077C15.8788 9.08037 16.0718 9.3217 16.3615 9.36998C16.6028 9.36998 16.7958 9.27344 16.8924 9.08037C16.9406 9.27344 17.1337 9.41824 17.375 9.41824C17.6646 9.41824 17.9059 9.22517 17.9542 8.93558C17.9059 8.59772 17.7129 8.35638 17.4233 8.35638Z" fill="#EFD27F"/>
<path d="M16.3615 9.36998C16.6028 9.36998 16.7958 9.27344 16.8924 9.08037C16.9406 9.27344 17.1337 9.41824 17.375 9.41824C17.6646 9.41824 17.906 9.22517 17.9542 8.93558C17.9542 8.64598 17.7612 8.40465 17.4716 8.35638" fill="#E2B544"/>
<path d="M16.8441 9.03209C16.8924 9.22516 17.0854 9.36996 17.3268 9.36996C17.6164 9.36996 17.8577 9.1769 17.906 8.8873C17.906 8.5977 17.7129 8.35637 17.4233 8.30811C17.375 8.06677 17.182 7.82544 16.9406 7.82544" fill="#E2B544"/>
<path d="M16.3615 8.40463C16.4097 8.4529 16.3132 8.54942 16.2649 8.5977C16.1684 8.64597 16.0719 8.69423 16.0719 8.64597C16.0236 8.5977 16.1202 8.50116 16.1684 8.4529C16.2649 8.40463 16.3615 8.40463 16.3615 8.40463Z" fill="#FFF0B0"/>
<path d="M16.8442 7.97025C16.8924 8.01851 16.8442 8.06678 16.7476 8.11504C16.6511 8.16331 16.6028 8.16331 16.5546 8.16331C16.5546 8.11504 16.5546 8.06678 16.6511 8.01851C16.7476 7.92197 16.8442 7.92197 16.8442 7.97025Z" fill="#FFF0B0"/>
<path d="M5.01882 8.74252C4.77749 8.35638 4.29483 8.16331 3.90869 8.35638C3.47429 8.54944 3.28123 8.98385 3.37776 9.41824C2.94337 9.61131 2.7503 10.1422 2.94337 10.6249C3.13643 11.1076 3.66736 11.3006 4.15003 11.1076C4.4879 10.9628 4.72922 10.6249 4.72922 10.2388C4.97055 10.4801 5.35669 10.5766 5.74282 10.4318C6.22549 10.2388 6.41855 9.70784 6.22549 9.22517C5.98415 8.79077 5.50149 8.59771 5.01882 8.74252Z" fill="#EFD27F"/>
<path d="M4.10181 11.1076C4.43967 10.9628 4.68101 10.6249 4.68101 10.2388C4.92234 10.4801 5.30847 10.5767 5.6946 10.4319C6.17726 10.2388 6.37033 9.70785 6.17726 9.2252C5.9842 8.7908 5.50154 8.54945 5.01887 8.69426" fill="#E2B544"/>
<path d="M4.68095 10.287C4.92229 10.5284 5.30842 10.6249 5.69455 10.4801C6.17722 10.287 6.37029 9.75612 6.17722 9.27347C5.98415 8.83906 5.50148 8.59771 5.01882 8.74252C4.77748 8.35638 4.29482 8.16331 3.90869 8.35638" fill="#E2B544"/>
<path d="M3.47435 9.65956C3.57088 9.70782 3.52261 9.85263 3.42608 10.0457C3.32955 10.1905 3.18475 10.287 3.13648 10.2388C3.03995 10.1905 3.08821 10.0457 3.18475 9.85263C3.23302 9.70782 3.37782 9.61129 3.47435 9.65956Z" fill="#FFF0B0"/>
<path d="M3.86053 8.5977C3.9088 8.64596 3.9088 8.79075 3.81227 8.93556C3.71574 9.08036 3.6192 9.17689 3.52267 9.12863C3.47441 9.08036 3.47441 8.93556 3.57093 8.79075C3.66747 8.64596 3.81227 8.54944 3.86053 8.5977Z" fill="#FFF0B0"/>
<path d="M13.0793 7.97025C12.9346 7.34278 12.3554 6.90838 11.6796 7.00492C11.0521 7.05319 10.5212 7.58412 10.473 8.21158C9.79724 8.30811 9.31457 8.93558 9.36282 9.61131C9.4111 10.3353 10.0868 10.8662 10.8108 10.818C11.3418 10.7697 11.7761 10.3836 11.921 9.94917C12.1623 10.3836 12.645 10.6732 13.1759 10.6249C13.8999 10.5766 14.4308 9.9009 14.3825 9.1769C14.3343 8.45291 13.7551 7.97025 13.0793 7.97025Z" fill="#EFD27F"/>
<path d="M10.8108 10.818C11.3417 10.7697 11.7761 10.3836 11.9209 9.9492C12.1623 10.3836 12.6449 10.6732 13.1758 10.6249C13.8998 10.5767 14.4308 9.90094 14.3825 9.17694C14.3342 8.50121 13.755 7.97028 13.031 7.97028" fill="#E2B544"/>
<path d="M11.9209 9.90093C12.1623 10.3353 12.6449 10.6249 13.1759 10.5766C13.8999 10.5284 14.4308 9.85265 14.3825 9.12865C14.3343 8.45293 13.7551 7.92199 13.0311 7.92199C12.8863 7.29453 12.3071 6.86013 11.6313 6.95667" fill="#E2B544"/>
<path d="M10.5695 8.54945C10.666 8.646 10.5695 8.83905 10.3764 9.03212C10.1833 9.22519 9.942 9.27345 9.84546 9.17693C9.74893 9.08038 9.84546 8.88731 10.0868 8.69426C10.2799 8.50119 10.4729 8.45293 10.5695 8.54945Z" fill="#FFF0B0"/>
<path d="M11.5348 7.24625C11.6313 7.34278 11.5348 7.53584 11.3417 7.68064C11.1486 7.82545 10.9556 7.87371 10.9073 7.82545C10.859 7.72891 10.9073 7.53584 11.1004 7.39105C11.2934 7.24625 11.4865 7.19798 11.5348 7.24625Z" fill="#FFF0B0"/>
<path d="M16.5063 4.54333C16.5063 3.91586 16.0236 3.38493 15.3479 3.2884C14.7204 3.19187 14.093 3.62627 13.9482 4.20546C13.2725 4.1572 12.645 4.63987 12.5485 5.36386C12.4519 6.08786 12.9828 6.76359 13.7068 6.86012C14.2378 6.90839 14.7204 6.66706 15.01 6.23266C15.1548 6.71532 15.5893 7.10146 16.1202 7.14972C16.8442 7.24625 17.5199 6.71532 17.6165 5.99133C17.6165 5.26733 17.182 4.63987 16.5063 4.54333Z" fill="#EFD27F"/>
<path d="M13.6586 6.81185C14.1895 6.86012 14.6721 6.61878 14.9618 6.18438C15.1066 6.66705 15.541 7.05318 16.0719 7.10145C16.7959 7.19798 17.4716 6.66705 17.5681 5.94305C17.6647 5.26732 17.182 4.63985 16.5063 4.49506" fill="#E2B544"/>
<path d="M14.9618 6.18437C15.1066 6.66703 15.541 7.05316 16.0719 7.10143C16.7959 7.19796 17.4717 6.66703 17.5682 5.94303C17.6647 5.2673 17.1821 4.63984 16.5063 4.49504C16.5063 3.86757 16.0237 3.33664 15.3479 3.24011" fill="#E2B544"/>
<path d="M13.8999 4.54332C13.9482 4.63985 13.8033 4.83292 13.562 4.97773C13.3207 5.12252 13.0794 5.12252 13.0311 5.02599C12.9828 4.92945 13.1276 4.73638 13.3689 4.59159C13.6103 4.44679 13.8516 4.44679 13.8999 4.54332Z" fill="#FFF0B0"/>
<path d="M15.1549 3.52973C15.2031 3.62627 15.1066 3.77107 14.8653 3.91587C14.6722 4.0124 14.4792 4.0124 14.4309 3.91587C14.3826 3.81933 14.4792 3.67453 14.7205 3.52973C14.9136 3.4332 15.1066 3.4332 15.1549 3.52973Z" fill="#FFF0B0"/>
<path d="M19.1608 11.1076C19.1608 10.4801 18.6782 9.94917 18.0025 9.85264C17.375 9.7561 16.7475 10.1905 16.6027 10.7697C15.927 10.7214 15.2995 11.2041 15.203 11.9281C15.1065 12.6521 15.6374 13.3278 16.3131 13.4244C16.844 13.4726 17.3267 13.2313 17.6163 12.7969C17.7611 13.2796 18.1955 13.6657 18.7265 13.714C19.4505 13.8105 20.1262 13.2796 20.2227 12.6038C20.271 11.8316 19.8366 11.2041 19.1608 11.1076Z" fill="#EFD27F"/>
<path d="M16.3132 13.3761C16.8441 13.4244 17.3268 13.183 17.6164 12.7487C17.7612 13.2313 18.1956 13.6175 18.7265 13.6657C19.4505 13.7622 20.1263 13.2313 20.2228 12.5556C20.3193 11.8799 19.8367 11.2524 19.1609 11.1076" fill="#E2B544"/>
<path d="M17.6165 12.7486C17.7613 13.2313 18.1957 13.6174 18.7266 13.6657C19.4506 13.7623 20.1263 13.2313 20.2228 12.5556C20.3194 11.8798 19.8367 11.2524 19.161 11.1076C19.161 10.4801 18.6783 9.94919 18.0026 9.85266" fill="#E2B544"/>
<path d="M16.6028 11.1076C16.651 11.2041 16.5062 11.3972 16.2649 11.542C16.0236 11.6868 15.7822 11.6868 15.734 11.5903C15.6857 11.4937 15.8305 11.3007 16.0718 11.1559C16.2649 11.0111 16.5062 11.0111 16.6028 11.1076Z" fill="#FFF0B0"/>
<path d="M17.8094 10.0457C17.8577 10.1423 17.7612 10.2871 17.5198 10.4319C17.3268 10.5284 17.1337 10.5767 17.0854 10.4801C17.0372 10.3836 17.1337 10.2388 17.375 10.094C17.5681 9.99745 17.7612 9.94919 17.8094 10.0457Z" fill="#FFF0B0"/>
<path d="M7.91488 5.12252C7.91488 4.49506 7.43221 3.96413 6.75648 3.8676C6.12902 3.77106 5.50155 4.20546 5.35674 4.78466C4.68102 4.73639 4.05355 5.21906 3.95702 5.94305C3.86049 6.66705 4.39142 7.34278 5.11542 7.43932C5.64635 7.48758 6.12902 7.24625 6.41862 6.81185C6.56341 7.29451 6.99781 7.68065 7.52874 7.72892C8.25274 7.82544 8.92847 7.29451 9.025 6.61878C9.025 5.89479 8.59061 5.26732 7.91488 5.12252Z" fill="#EFD27F"/>
<path d="M5.06714 7.39108C5.59807 7.43935 6.08073 7.19801 6.37033 6.76361C6.51514 7.24628 6.94952 7.63242 7.48047 7.68068C8.20447 7.77721 8.88019 7.24628 8.97672 6.57055C9.07326 5.89482 8.59059 5.26735 7.91486 5.12256" fill="#E2B544"/>
<path d="M6.37036 6.7636C6.51515 7.24626 6.94955 7.6324 7.48048 7.68067C8.20448 7.7772 8.88022 7.24626 8.97675 6.57054C9.07327 5.89481 8.59062 5.26734 7.91487 5.12254C7.91487 4.49507 7.43221 3.96415 6.75648 3.86761" fill="#E2B544"/>
<path d="M5.30846 5.1708C5.35673 5.26734 5.21193 5.4604 4.9706 5.6052C4.72926 5.75 4.48793 5.75 4.43967 5.65347C4.3914 5.55694 4.53619 5.36387 4.77753 5.21907C5.01887 5.07427 5.2602 5.026 5.30846 5.1708Z" fill="#FFF0B0"/>
<path d="M6.56339 4.10894C6.61165 4.20547 6.51512 4.35027 6.27379 4.49507C6.08072 4.5916 5.88765 4.63987 5.79112 4.54334C5.74285 4.4468 5.83939 4.30201 6.08072 4.1572C6.32205 4.0124 6.51512 4.0124 6.56339 4.10894Z" fill="#FFF0B0"/>
</svg>
