<svg width="19" height="28" viewBox="0 0 19 28" fill="none" xmlns="http://www.w3.org/2000/svg">
<path d="M18.8268 9.9328C18.7449 9.84143 18.6281 9.78931 18.5056 9.78931H0.494639C0.37211 9.78931 0.255343 9.84148 0.173441 9.9328C0.0915318 10.0241 0.052126 10.1461 0.0650273 10.2682L1.87052 27.3368C1.89379 27.5572 2.07916 27.7244 2.30011 27.7244H16.7001C16.9211 27.7244 17.1064 27.5572 17.1297 27.3368L18.9352 10.2682C18.9481 10.1461 18.9087 10.0241 18.8268 9.9328ZM6.30977 26.8579L5.45282 10.6558H9.06808V26.8579H6.30977ZM0.974917 10.6558H4.58769L5.44458 26.8579H2.68871L0.974917 10.6558ZM16.3115 26.8579H13.5557L13.9372 19.6451C13.9498 19.4061 13.7669 19.2022 13.5286 19.1895C13.2896 19.1763 13.0869 19.3603 13.0743 19.5992L12.6904 26.8579H9.93211V10.6558H13.5473L13.1658 17.8686C13.1531 18.1076 13.3361 18.3115 13.5743 18.3242C13.5821 18.3246 13.5899 18.3248 13.5976 18.3248C13.8257 18.3248 14.0164 18.1456 14.0286 17.9145L14.4126 10.6558H18.0253L16.3115 26.8579Z" fill="white"/>
<path d="M9.4971 4.9071C9.25784 4.9071 9.06384 5.10109 9.06384 5.34035C9.06384 5.57961 9.25784 5.77359 9.4971 5.77359C10.1153 5.77359 10.6746 6.11614 10.9568 6.66757C11.0335 6.81742 11.1854 6.90355 11.3428 6.90355C11.4093 6.90355 11.4767 6.88824 11.5399 6.85589C11.7529 6.74689 11.8372 6.48585 11.7282 6.27287C11.2971 5.43041 10.4422 4.9071 9.4971 4.9071Z" fill="white"/>
<path d="M4.50531 8.50821C4.39628 8.72125 4.48062 8.98224 4.69362 9.09123C4.75679 9.12358 4.82422 9.1389 4.89064 9.1389C5.04811 9.1389 5.19998 9.05276 5.2767 8.90292C5.55888 8.35149 6.11816 8.00894 6.73637 8.00894C6.97565 8.00894 7.16962 7.81497 7.16962 7.5757C7.16962 7.33643 6.97565 7.14246 6.73637 7.14246C5.79127 7.14246 4.9364 7.66576 4.50531 8.50821Z" fill="white"/>
<path d="M0.464092 9.21072C0.47446 9.21147 0.484775 9.21182 0.495037 9.21182C0.71973 9.21182 0.909412 9.03736 0.925548 8.80913C0.931476 8.72503 0.944034 8.6404 0.962932 8.55745C1.10008 7.95472 1.55722 7.48572 2.15587 7.33333C2.27978 7.3018 2.38335 7.21688 2.43882 7.10135C2.49429 6.98588 2.49591 6.85169 2.44326 6.73488C2.18883 6.17046 2.26947 5.51961 2.65379 5.03634C3.03811 4.55302 3.65297 4.32929 4.25825 4.4525C4.38337 4.47798 4.51361 4.44655 4.61355 4.36666C4.71349 4.28672 4.77298 4.16656 4.7761 4.03838C4.79102 3.41914 5.14527 2.86788 5.70069 2.59961C6.25614 2.33135 6.90676 2.39732 7.39885 2.7717C7.50069 2.84916 7.63147 2.87735 7.75611 2.84893C7.8807 2.82039 7.98635 2.73802 8.04457 2.62388C8.32592 2.07256 8.88362 1.73001 9.50008 1.73001C10.1166 1.73001 10.6743 2.07256 10.9556 2.62399C11.0139 2.73814 11.1195 2.82051 11.2441 2.84905C11.3686 2.87752 11.4996 2.84928 11.6014 2.77181C12.0934 2.39738 12.7441 2.33147 13.2995 2.59973C13.8549 2.86799 14.2091 3.41925 14.2241 4.0385C14.2272 4.16662 14.2867 4.28683 14.3866 4.36678C14.4866 4.44667 14.6167 4.47815 14.7419 4.45262C15.3472 4.32946 15.962 4.55313 16.3464 5.03646C16.7307 5.51978 16.8114 6.17063 16.557 6.735C16.5043 6.8518 16.5059 6.98599 16.5614 7.10146C16.6169 7.21694 16.7204 7.30185 16.8443 7.33339C17.443 7.48578 17.9001 7.95484 18.0373 8.5575C18.0562 8.64046 18.0687 8.72508 18.0747 8.80913C18.0915 9.04776 18.2982 9.22759 18.5361 9.21072C18.7741 9.19385 18.9534 8.98664 18.9366 8.74796C18.9275 8.61972 18.9084 8.49073 18.8797 8.36462C18.7051 7.59744 18.1916 6.97195 17.4966 6.64968C17.6787 5.90386 17.5111 5.11132 17.0219 4.49606C16.5327 3.88074 15.8003 3.54085 15.0338 3.55275C14.8752 2.80162 14.3814 2.16036 13.6744 1.81891C12.9674 1.47746 12.1596 1.49005 11.475 1.83405C11.0071 1.22641 10.2848 0.863525 9.50008 0.863525C8.71537 0.863525 7.99303 1.22635 7.52513 1.8341C6.84057 1.49011 6.03276 1.47757 5.32574 1.81897C4.61879 2.16042 4.12497 2.80162 3.96632 3.5528C3.19941 3.54062 2.46745 3.88091 1.97824 4.49612C1.48901 5.11132 1.32151 5.90392 1.50353 6.64974C0.808613 6.97201 0.295086 7.5975 0.120495 8.36468C0.091747 8.49079 0.0726277 8.61978 0.0635869 8.74802C0.0468175 8.9867 0.226078 9.19385 0.464092 9.21072Z" fill="white"/>
</svg>
