<svg width="24" height="24" viewBox="0 0 24 24" fill="none" xmlns="http://www.w3.org/2000/svg">
<path fill-rule="evenodd" clip-rule="evenodd" d="M11.998 1.6883C13.8355 0.468176 16.2774 0.131079 18.3857 0.840399C22.9725 2.39338 24.3972 7.64338 23.1229 11.8211C21.1582 18.3817 12.7645 23.2756 12.4087 23.4809C12.2824 23.5544 12.1417 23.5916 12.002 23.5916C11.8612 23.5916 11.7223 23.5563 11.5961 23.484C11.2423 23.2806 2.91012 18.4592 0.878935 11.8221C0.877958 11.8221 0.877958 11.8211 0.877958 11.8211C-0.396456 7.6424 1.02261 2.39142 5.60562 0.840399C7.75723 0.109991 10.1018 0.43183 11.998 1.6883ZM6.12521 2.53525C2.41757 3.78974 1.48623 7.97745 2.49274 11.2788C4.07754 16.4544 10.3371 20.6381 12.001 21.6742C13.6697 20.6281 19.9744 16.3971 21.5081 11.2838C22.5155 7.9784 21.5804 3.79169 17.8671 2.53525C16.0681 1.92875 13.9694 2.29786 12.5205 3.47483C12.2178 3.71934 11.7975 3.72333 11.4919 3.48179C9.95715 2.27079 7.95288 1.91556 6.12521 2.53525Z" fill="#9B9696"/>
</svg>
